# xmcd
#
# Track frame offsets: 
#        150
#        28870
#        47105
#        90922
#        115644
#        142459
#        163416
#        188851
#        217556
#        248991
#
# Disc length: 3539 seconds
#
# Revision: 0
# Processed by: cddbd v1.5.2PL0 Copyright (c) Steve Scherf et al.
# Submitted via: ExactAudioCopy v1.0b1
#
DISCID=8a0dd10a
DTITLE=Bondi Cigars - Down In The Valley [disk1]
DYEAR=2001
DGENRE=Blues
TTITLE0=Someone Else Is Stepping In
TTITLE1=I Can't Sleep
TTITLE2=Bad Weather Blues
TTITLE3=Don't Think Twice, It's Alright
TTITLE4=Calling Card
TTITLE5=Ain't No Big Deal On You
TTITLE6=Got The News
TTITLE7=Alberts Alley
TTITLE8=Driving Blindly Through The Night
TTITLE9=You're A Mystery
EXTD=
EXTT0=
EXTT1=
EXTT2=
EXTT3=
EXTT4=
EXTT5=
EXTT6=
EXTT7=
EXTT8=
EXTT9=
PLAYORDER=
